HIERARCHY
ROOT Hips
{
	OFFSET 0.000000 0.000000 0.000000
	CHANNELS 6 Xposition Yposition Zposition Yrotation Xrotation Zrotation
	JOINT Chest
	{
		OFFSET 0.000000 -0.009281 11.569106
		CHANNELS 3 Yrotation Xrotation Zrotation
		JOINT Chest2
		{
			OFFSET -0.000000 0.016865 9.269641
			CHANNELS 3 Yrotation Xrotation Zrotation
			JOINT Chest3
			{
				OFFSET -0.000000 0.000001 8.374491
				CHANNELS 3 Yrotation Xrotation Zrotation
				JOINT Chest4
				{
					OFFSET -0.000000 0.000001 8.374493
					CHANNELS 3 Yrotation Xrotation Zrotation
					JOINT Neck
					{
						OFFSET -0.000000 0.000002 12.152554
						CHANNELS 3 Yrotation Xrotation Zrotation
						JOINT Head
						{
							OFFSET -0.000000 0.040101 7.802319
							CHANNELS 3 Yrotation Xrotation Zrotation
							End Site
							{
								OFFSET -0.000000 0.020947 14.853096
							}
						}
					}
					JOINT RightCollar
					{
						OFFSET 2.894404 0.000001 6.791374
						CHANNELS 3 Yrotation Xrotation Zrotation
						JOINT RightShoulder
						{
							OFFSET 13.574684 0.000001 0.000000
							CHANNELS 3 Yrotation Xrotation Zrotation
							JOINT RightElbow
							{
								OFFSET 23.923903 0.000002 0.000000
								CHANNELS 3 Yrotation Xrotation Zrotation
								JOINT RightWrist
								{
									OFFSET 19.846718 0.012767 0.000000
									CHANNELS 3 Yrotation Xrotation Zrotation
									End Site
									{
										OFFSET 14.973145 0.000001 0.000000
									}
								}
							}
						}
					}
					JOINT LeftCollar
					{
						OFFSET -2.894404 0.000001 6.791374
						CHANNELS 3 Yrotation Xrotation Zrotation
						JOINT LeftShoulder
						{
							OFFSET -13.574684 -0.000001 0.000000
							CHANNELS 3 Yrotation Xrotation Zrotation
							JOINT LeftElbow
							{
								OFFSET -23.923903 -0.000002 0.000000
								CHANNELS 3 Yrotation Xrotation Zrotation
								JOINT LeftWrist
								{
									OFFSET -19.846718 0.012763 0.000000
									CHANNELS 3 Yrotation Xrotation Zrotation
									End Site
									{
										OFFSET -14.973145 -0.000001 0.000000
									}
								}
							}
						}
					}
				}
			}
		}
	}
	JOINT RightHip
	{
		OFFSET 9.469263 0.004643 0.045487
		CHANNELS 3 Yrotation Xrotation Zrotation
		JOINT RightKnee
		{
			OFFSET 0.000000 0.002661 -40.478676
			CHANNELS 3 Yrotation Xrotation Zrotation
			JOINT RightAnkle
			{
				OFFSET 0.000000 0.049106 -35.224068
				CHANNELS 3 Yrotation Xrotation Zrotation
				JOINT RightToe
				{
					OFFSET -0.000001 12.539529 -6.151390
					CHANNELS 3 Yrotation Xrotation Zrotation
					End Site
					{
						OFFSET -0.000001 5.044994 -1.291870
					}
				}
			}
		}
	}
	JOINT LeftHip
	{
		OFFSET -9.469263 0.004641 0.045487
		CHANNELS 3 Yrotation Xrotation Zrotation
		JOINT LeftKnee
		{
			OFFSET 0.000000 0.002661 -40.478676
			CHANNELS 3 Yrotation Xrotation Zrotation
			JOINT LeftAnkle
			{
				OFFSET 0.000000 0.049106 -35.224068
				CHANNELS 3 Yrotation Xrotation Zrotation
				JOINT LeftToe
				{
					OFFSET -0.000001 12.539529 -6.151390
					CHANNELS 3 Yrotation Xrotation Zrotation
					End Site
					{
						OFFSET -0.000001 5.044994 -1.291870
					}
				}
			}
		}
	}
}
MOTION
Frames: 9
Frame Time: 0.016667
12.231097 4.349914 83.021675 -6.778370 -1.998233 -101.360164 -0.365636 -4.281767 3.503211 -0.090168 -1.904152 1.478429 -0.090168 -1.904152 1.478430 -0.063012 -1.428343 1.108440 8.177546 -21.825448 -6.821661 12.862546 -4.137743 -10.028550 3.937229 1.404479 1.357756 49.426299 -15.395603 57.077883 -7.198142 -17.045838 -2.607193 1.775395 -18.866302 -3.993513 -8.763680 -0.628826 -12.182004 -66.692604 1.003899 -37.889498 -74.033923 -14.354416 -37.920582 1.186171 41.927369 10.163656 -0.054492 -12.316494 -5.586972 2.024630 -2.525245 -7.338290 -0.829711 6.760945 0.834208 -0.086112 0.100266 -0.003047 0.121111 -10.573628 -4.305575 1.259377 -1.784523 0.591702 -0.901001 4.942228 -3.792105 0.109207 -0.134942 0.017094 
12.216065 4.368969 83.027817 -6.736020 -2.032440 -101.469953 -0.370951 -4.215560 3.491426 -0.093234 -1.875057 1.474000 -0.093234 -1.875057 1.473999 -0.065395 -1.406528 1.105115 8.223224 -21.852121 -6.797672 12.952796 -4.187716 -9.973963 3.899547 1.300145 1.355297 49.729149 -15.178659 57.305547 -7.156489 -14.523217 -2.859419 1.976078 -18.953529 -5.825760 -8.660262 -0.762678 -12.210596 -65.864395 0.793367 -38.958709 -72.647832 -14.181906 -38.524442 -4.116714 39.673980 9.007097 -0.038935 -12.274244 -5.536410 1.997721 -2.475992 -7.328914 -0.775269 6.700643 0.894274 -0.092800 0.101680 -0.003899 0.143638 -10.572340 -4.204994 1.241058 -1.714590 0.606250 -0.904955 4.905104 -3.794122 0.108028 -0.136003 0.018652 
12.200236 4.387277 83.033401 -6.692615 -2.068464 -101.592370 -0.376593 -4.168543 3.490021 -0.096501 -1.854358 1.474738 -0.096501 -1.854358 1.474738 -0.067893 -1.391010 1.105665 8.266046 -21.858813 -6.777225 13.036227 -4.200620 -9.925415 3.886472 1.222353 1.334589 50.207559 -14.802056 57.513089 -6.893902 -11.324541 -3.069370 1.981837 -18.923642 -7.713152 -8.573940 -0.837183 -12.273216 -65.158926 0.609991 -39.991027 -71.148612 -14.015770 -39.268400 -9.360493 37.011258 8.360232 -0.022367 -12.229684 -5.468173 1.971363 -2.426480 -7.332521 -0.722840 6.641836 0.962825 -0.097598 0.100501 -0.003977 0.167871 -10.572726 -4.101760 1.220557 -1.645806 0.620647 -0.905895 4.872819 -3.771923 0.105407 -0.137447 0.019744 
12.185923 4.406144 83.037193 -6.642449 -2.104272 -101.725709 -0.377107 -4.119463 3.478696 -0.097614 -1.831909 1.471483 -0.097615 -1.831909 1.471482 -0.068793 -1.374177 1.103224 8.287731 -21.864071 -6.748496 13.083758 -4.211540 -9.867778 3.880620 1.210220 1.291589 50.839321 -14.317131 57.685647 -6.537624 -8.525311 -3.182312 2.197750 -19.044379 -9.618612 -8.498681 -0.933693 -12.310894 -64.599752 0.514323 -41.041251 -69.725815 -13.884028 -39.974727 -14.384716 34.200472 8.192020 -0.005477 -12.180265 -5.414850 1.940360 -2.374544 -7.329310 -0.665067 6.586015 1.047034 -0.102015 0.094969 -0.003566 0.193245 -10.561720 -4.008499 1.197304 -1.592994 0.654771 -0.903157 4.855626 -3.783966 0.100005 -0.141945 0.018852 
12.170856 4.427182 83.040398 -6.586483 -2.143145 -101.873337 -0.374502 -4.069121 3.455496 -0.096879 -1.809248 1.463169 -0.096879 -1.809249 1.463170 -0.068322 -1.357178 1.096999 8.287209 -21.868608 -6.709216 13.094101 -4.221881 -9.797293 3.848217 1.208305 1.250179 51.391023 -13.976417 57.845234 -6.357067 -6.193131 -3.224950 2.591578 -19.290729 -11.514960 -8.442247 -1.035592 -12.340665 -64.153870 0.536399 -42.070499 -68.404003 -13.883780 -40.666895 -18.906710 31.504770 8.418555 0.009127 -12.119338 -5.351130 1.913395 -2.331769 -7.314358 -0.608327 6.533493 1.122004 -0.106151 0.088515 -0.003713 0.212880 -10.541764 -3.912357 1.178870 -1.552080 0.711041 -0.898841 4.846803 -3.796652 0.095003 -0.146862 0.017849 
12.155080 4.446728 83.044823 -6.531239 -2.185122 -102.035827 -0.375818 -4.031839 3.434571 -0.097916 -1.792696 1.455395 -0.097916 -1.792696 1.455394 -0.069160 -1.344765 1.091169 8.281076 -21.863593 -6.669779 13.094064 -4.214624 -9.727514 3.789195 1.190903 1.212972 51.688187 -13.897171 58.018086 -6.363487 -3.671199 -3.269326 2.904387 -19.535722 -13.167937 -8.406440 -1.100487 -12.376553 -63.773838 0.605495 -43.031097 -67.177520 -14.066794 -41.436326 -22.686400 28.988276 9.333316 0.022118 -12.055240 -5.275582 1.889823 -2.294792 -7.310878 -0.548050 6.478955 1.215312 -0.112753 0.085430 -0.003514 0.237057 -10.519030 -3.804808 1.153542 -1.521809 0.757903 -0.893295 4.841655 -3.772646 0.092797 -0.148350 0.017842 
12.139747 4.463936 83.051407 -6.485913 -2.228983 -102.210291 -0.388266 -3.997942 3.416721 -0.103762 -1.778190 1.449174 -0.103762 -1.778190 1.449174 -0.073598 -1.333898 1.086490 8.280232 -21.862174 -6.637015 13.101806 -4.213657 -9.668512 3.732665 1.138202 1.209446 51.908789 -13.894904 58.126515 -6.372602 -0.278493 -3.316126 2.668509 -19.561016 -14.187087 -8.374413 -1.143722 -12.404725 -63.503049 0.659382 -43.917396 -65.958877 -14.520318 -42.329261 -25.883922 26.489512 10.816628 0.036093 -11.998928 -5.209492 1.862149 -2.261509 -7.302330 -0.482798 6.421744 1.321604 -0.120900 0.086057 -0.004433 0.263734 -10.510051 -3.690386 1.124787 -1.487503 0.796937 -0.890273 4.829133 -3.747312 0.093432 -0.143229 0.019212 
12.123265 4.481403 83.058891 -6.444502 -2.273566 -102.401078 -0.414093 -3.955662 3.409604 -0.115357 -1.760573 1.448163 -0.115358 -1.760573 1.448163 -0.082339 -1.320712 1.085704 8.291558 -21.873312 -6.620887 13.127182 -4.235002 -9.636918 3.727724 1.046168 1.246311 52.322763 -13.703093 58.117383 -6.048102 4.004995 -3.304511 1.347424 -19.353990 -14.596179 -8.303119 -1.276832 -12.449093 -63.325566 0.782675 -44.864770 -64.818946 -15.251160 -43.329316 -28.511793 23.749995 12.735847 0.043107 -11.939134 -5.145078 1.841514 -2.239375 -7.283563 -0.421352 6.366499 1.425472 -0.127346 0.087733 -0.005943 0.286915 -10.503806 -3.577082 1.097066 -1.458936 0.834113 -0.884632 4.816209 -3.717806 0.092505 -0.134302 0.019723 
12.106730 4.498167 83.064606 -6.400548 -2.319332 -102.609433 -0.441791 -3.912051 3.407629 -0.128985 -1.741635 1.449343 -0.128985 -1.741635 1.449343 -0.092601 -1.306540 1.086555 8.302902 -21.888139 -6.617189 13.149171 -4.262538 -9.627982 3.747347 0.931651 1.261399 52.945769 -13.234305 58.068288 -5.406495 7.281467 -3.133258 -0.663709 -19.133624 -14.697426 -8.238251 -1.438915 -12.512565 -63.157865 1.034060 -45.831618 -63.927121 -16.265640 -44.218464 -30.616972 21.307842 14.568257 0.052799 -11.874640 -5.076394 1.812180 -2.218812 -7.237379 -0.361377 6.314672 1.517903 -0.129836 0.084324 -0.007286 0.303295 -10.499269 -3.454384 1.079698 -1.429676 0.889898 -0.878321 4.810977 -3.697928 0.086240 -0.130231 0.019625 
